<?xml version="1.0" encoding="utf-8"?>
<svg id="ic_fluent_star_20_regular" width="16" height="16" style="width:16px;height:16px;" version="1.1"
     xmlns="http://www.w3.org/2000/svg" viewBox="0 0 500 500" enable-background="new 0 0 500 500" xml:space="preserve"><path fill="#ffffff" d="M222.52 16.24 q3.75 -7.5 11.24 -11.87 q7.5 -4.37 16.24 -4.37 q8.74 0 16.24 4.37 q7.5 4.37 11.25 11.87 l61.21 122.41 l134.9 19.99 q8.74 1.25 15.61 6.87 q6.87 5.62 9.37 14.37 q2.5 8.75 0.63 17.49 q-1.88 8.74 -9.37 14.99 l-97.43 94.93 l23.73 133.66 q1.25 8.74 -1.88 16.86 q-3.13 8.12 -10.62 13.74 q-7.49 5.62 -16.24 6.25 q-8.74 0.63 -16.24 -3.13 l-121.16 -63.7 l-121.16 63.7 q-7.5 3.75 -16.25 3.13 q-8.75 -0.63 -16.23 -6.25 q-7.49 -5.62 -10.61 -13.74 q-3.13 -8.12 -1.88 -16.86 l23.73 -133.66 l-97.43 -94.93 q-7.49 -6.25 -9.37 -14.99 q-1.88 -8.74 0.63 -17.49 q2.5 -8.75 9.37 -14.37 q6.87 -5.62 15.61 -6.87 l134.9 -19.99 l61.21 -122.41 ZM250 31.23 l-59.96 121.16 q-7.49 14.99 -23.73 17.49 l-134.9 19.98 l97.43 94.94 q12.49 11.24 8.74 27.48 l-22.48 133.65 l119.91 -62.45 q14.99 -7.5 29.98 0 l119.91 62.45 l-22.48 -133.65 q-3.75 -16.24 8.74 -27.48 l97.43 -94.94 l-134.9 -19.98 q-16.24 -2.5 -23.73 -17.49 l-59.96 -121.16 Z"/></svg>